<svg width="27" height="24" viewBox="0 0 27 24" fill="none" xmlns="http://www.w3.org/2000/svg">
<g clip-path="url(#clip0_645_1285)">
<path d="M0 0H27V24H0V0Z" stroke="#E5E7EB"/>
<path d="M11.0016 2.00156L9.23438 2.6625C9.09375 2.71406 9 2.85 9 3C9 3.15 9.09375 3.28594 9.23438 3.3375L11.0016 3.99844L11.6625 5.76562C11.7141 5.90625 11.85 6 12 6C12.15 6 12.2859 5.90625 12.3375 5.76562L12.9984 3.99844L14.7656 3.3375C14.9062 3.28594 15 3.15 15 3C15 2.85 14.9062 2.71406 14.7656 2.6625L12.9984 2.00156L12.3375 0.234375C12.2859 0.09375 12.15 0 12 0C11.85 0 11.7141 0.09375 11.6625 0.234375L11.0016 2.00156ZM2.16094 18.5344C1.28437 19.4109 1.28437 20.8359 2.16094 21.7172L3.78281 23.3391C4.65937 24.2156 6.08438 24.2156 6.96563 23.3391L24.8391 5.46094C25.7156 4.58437 25.7156 3.15937 24.8391 2.27812L23.2172 0.660937C22.3406 -0.215625 20.9156 -0.215625 20.0344 0.660937L2.16094 18.5344ZM22.7156 3.87187L17.7938 8.79375L16.7016 7.70156L21.6234 2.77969L22.7156 3.87187ZM0.351562 5.49375C0.140625 5.57344 0 5.775 0 6C0 6.225 0.140625 6.42656 0.351562 6.50625L3 7.5L3.99375 10.1484C4.07344 10.3594 4.275 10.5 4.5 10.5C4.725 10.5 4.92656 10.3594 5.00625 10.1484L6 7.5L8.64844 6.50625C8.85938 6.42656 9 6.225 9 6C9 5.775 8.85938 5.57344 8.64844 5.49375L6 4.5L5.00625 1.85156C4.92656 1.64062 4.725 1.5 4.5 1.5C4.275 1.5 4.07344 1.64062 3.99375 1.85156L3 4.5L0.351562 5.49375ZM16.8516 17.4937C16.6406 17.5734 16.5 17.775 16.5 18C16.5 18.225 16.6406 18.4266 16.8516 18.5062L19.5 19.5L20.4938 22.1484C20.5734 22.3594 20.775 22.5 21 22.5C21.225 22.5 21.4266 22.3594 21.5062 22.1484L22.5 19.5L25.1484 18.5062C25.3594 18.4266 25.5 18.225 25.5 18C25.5 17.775 25.3594 17.5734 25.1484 17.4937L22.5 16.5L21.5062 13.8516C21.4266 13.6406 21.225 13.5 21 13.5C20.775 13.5 20.5734 13.6406 20.4938 13.8516L19.5 16.5L16.8516 17.4937Z" fill="white"/>
</g>
<defs>
<clipPath id="clip0_645_1285">
<rect width="27" height="24" fill="white"/>
</clipPath>
</defs>
</svg>
