<svg width="25" height="29" viewBox="0 0 25 29" fill="none" xmlns="http://www.w3.org/2000/svg">
<path d="M0.5 0H24.5V29H0.5V0Z" stroke="#E5E7EB"/>
<g clip-path="url(#clip0_645_1290)">
<path d="M7.83594 22.9859L7.24531 24.3688C6.36875 23.9234 5.5625 23.375 4.83125 22.7328L5.89531 21.6688C6.48125 22.1797 7.13281 22.625 7.83594 22.9859ZM2.40312 14.75H0.898438C0.964062 15.7438 1.15156 16.7047 1.44688 17.6141L2.84375 17.0563C2.61406 16.3203 2.45937 15.5469 2.40312 14.75ZM2.40312 13.25C2.46875 12.3688 2.64688 11.5156 2.92344 10.7141L1.54063 10.1234C1.18906 11.1078 0.96875 12.1578 0.898438 13.25H2.40312ZM3.51406 9.33594C3.87969 8.6375 4.32031 7.98594 4.83125 7.39062L3.76719 6.32656C3.125 7.05781 2.57187 7.86406 2.13125 8.74063L3.51406 9.33594ZM19.1094 21.6688C18.4578 22.2313 17.7312 22.7141 16.9484 23.0938L17.5062 24.4906C18.4766 24.0266 19.3719 23.4313 20.1734 22.7281L19.1094 21.6688ZM5.89062 6.33125C6.54219 5.76875 7.26875 5.28594 8.05156 4.90625L7.49375 3.50938C6.52344 3.97344 5.62813 4.56875 4.83125 5.27188L5.89062 6.33125ZM21.4859 18.6641C21.1203 19.3625 20.6797 20.0141 20.1688 20.6094L21.2328 21.6734C21.875 20.9422 22.4281 20.1313 22.8688 19.2594L21.4859 18.6641ZM22.5969 14.75C22.5312 15.6312 22.3531 16.4844 22.0766 17.2859L23.4594 17.8766C23.8109 16.8875 24.0312 15.8375 24.0969 14.7453H22.5969V14.75ZM15.5563 23.6562C14.8203 23.8906 14.0469 24.0406 13.25 24.0969V25.6016C14.2438 25.5359 15.2047 25.3484 16.1141 25.0531L15.5563 23.6562ZM11.75 24.0969C10.8688 24.0312 10.0156 23.8531 9.21406 23.5766L8.62344 24.9594C9.6125 25.3109 10.6625 25.5312 11.7547 25.5969V24.0969H11.75ZM22.1562 10.9438C22.3906 11.6797 22.5406 12.4531 22.5969 13.25H24.1016C24.0359 12.2562 23.8484 11.2953 23.5531 10.3859L22.1562 10.9438ZM4.83125 20.6094C4.26875 19.9578 3.78594 19.2312 3.40625 18.4484L2.00938 19.0062C2.47344 19.9766 3.06875 20.8719 3.77188 21.6734L4.83125 20.6094ZM13.25 3.90312C14.1312 3.96875 14.9797 4.14688 15.7859 4.42344L16.3766 3.04063C15.3922 2.68906 14.3422 2.46875 13.25 2.39844V3.90312ZM9.44375 4.34375C10.1797 4.10938 10.9531 3.95937 11.75 3.90312V2.39844C10.7562 2.46406 9.79531 2.65156 8.88594 2.94688L9.44375 4.34375ZM21.2328 6.32656L20.1688 7.39062C20.7313 8.04219 21.2141 8.76875 21.5984 9.55156L22.9953 8.99375C22.5312 8.02344 21.9359 7.12813 21.2328 6.32656ZM19.1094 6.33125L20.1734 5.26719C19.4422 4.625 18.6359 4.07187 17.7594 3.63125L17.1688 5.01406C17.8625 5.37969 18.5187 5.82031 19.1094 6.33125Z" fill="#6366F1"/>
<path d="M12.5 20.375C13.2249 20.375 13.8125 19.7874 13.8125 19.0625C13.8125 18.3376 13.2249 17.75 12.5 17.75C11.7751 17.75 11.1875 18.3376 11.1875 19.0625C11.1875 19.7874 11.7751 20.375 12.5 20.375Z" fill="#6366F1"/>
<path d="M12.8609 16.625H12.1109C11.8016 16.625 11.5484 16.3719 11.5484 16.0625C11.5484 12.7344 15.1766 13.0672 15.1766 11.0094C15.1766 10.0719 14.3422 9.125 12.4859 9.125C11.1219 9.125 10.4094 9.575 9.71094 10.4703C9.52813 10.7047 9.19063 10.7516 8.95157 10.5828L8.3375 10.1516C8.075 9.96875 8.01407 9.59844 8.21563 9.34531C9.20938 8.07031 10.3906 7.25 12.4906 7.25C14.9422 7.25 17.0563 8.64687 17.0563 11.0094C17.0563 14.1781 13.4281 13.9859 13.4281 16.0625C13.4234 16.3719 13.1703 16.625 12.8609 16.625Z" fill="#6366F1"/>
</g>
<defs>
<clipPath id="clip0_645_1290">
<path d="M0.5 2H24.5V26H0.5V2Z" fill="white"/>
</clipPath>
</defs>
</svg>
