<svg width="27" height="29" viewBox="0 0 27 29" fill="none" xmlns="http://www.w3.org/2000/svg">
<path d="M0 0H27V29H0V0Z" stroke="#E5E7EB"/>
<g clip-path="url(#clip0_645_1293)">
<path d="M14.8547 2.84375C14.6062 2.32812 14.0812 2 13.5047 2C12.9281 2 12.4078 2.32812 12.1547 2.84375L9.14061 9.04531L2.40936 10.0391C1.84686 10.1234 1.37811 10.5172 1.20467 11.0562C1.03123 11.5953 1.17186 12.1906 1.57498 12.5891L6.45936 17.4219L5.30623 24.2516C5.21248 24.8141 5.44686 25.3859 5.91092 25.7188C6.37498 26.0516 6.98905 26.0937 7.4953 25.8266L13.5094 22.6156L19.5234 25.8266C20.0297 26.0937 20.6437 26.0562 21.1078 25.7188C21.5719 25.3813 21.8062 24.8141 21.7125 24.2516L20.5547 17.4219L25.439 12.5891C25.8422 12.1906 25.9875 11.5953 25.8094 11.0562C25.6312 10.5172 25.1672 10.1234 24.6047 10.0391L17.8687 9.04531L14.8547 2.84375Z" fill="#EAB308"/>
</g>
<defs>
<clipPath id="clip0_645_1293">
<path d="M0 2H27V26H0V2Z" fill="white"/>
</clipPath>
</defs>
</svg>
